<svg width="1000" height="1000" viewBox="0 0 1000 1000" fill="none" xmlns="http://www.w3.org/2000/svg">
<g clip-path="url(#clip0_418_1206)">
<path d="M500 55.5555C412.097 55.5555 326.168 81.6218 253.08 130.458C179.991 179.294 123.026 248.707 89.3867 329.918C55.7477 411.13 46.9463 500.493 64.0953 586.707C81.2442 672.921 123.573 752.113 185.73 814.27C247.887 876.426 327.079 918.756 413.293 935.905C499.507 953.054 588.87 944.252 670.081 910.613C751.293 876.974 820.706 820.009 869.542 746.92C918.378 673.832 944.444 587.903 944.444 500C944.444 382.126 897.619 269.08 814.27 185.73C730.92 102.381 617.874 55.5555 500 55.5555V55.5555ZM500 888.889C423.085 888.889 347.897 866.081 283.945 823.349C219.992 780.618 170.147 719.882 140.713 648.821C111.279 577.761 103.578 499.569 118.583 424.132C133.589 348.694 170.627 279.401 225.014 225.014C279.401 170.627 348.694 133.589 424.131 118.583C499.568 103.578 577.761 111.279 648.821 140.714C719.881 170.148 780.618 219.992 823.349 283.945C866.081 347.897 888.889 423.085 888.889 500C888.889 603.14 847.917 702.055 774.986 774.986C702.055 847.917 603.14 888.889 500 888.889Z" fill="#25BF75"/>
<path d="M777.778 336.111C772.573 330.938 765.533 328.034 758.195 328.034C750.856 328.034 743.816 330.938 738.611 336.111L430.278 643.056L263.611 476.389C258.528 470.9 251.472 467.656 243.997 467.37C236.522 467.083 229.239 469.778 223.75 474.861C218.262 479.944 215.017 487 214.731 494.475C214.444 501.951 217.139 509.234 222.222 514.722L430.278 722.222L777.778 375.556C780.381 372.973 782.448 369.901 783.858 366.516C785.268 363.131 785.995 359.5 785.995 355.833C785.995 352.166 785.268 348.536 783.858 345.151C782.448 341.766 780.381 338.693 777.778 336.111Z" fill="#25BF75"/>
</g>
<defs>
<clipPath id="clip0_418_1206">
<rect width="1000" height="1000" fill="white"/>
</clipPath>
</defs>
</svg>
