<svg width="74" height="69" viewBox="0 0 74 69" fill="none" xmlns="http://www.w3.org/2000/svg">
<mask id="path-1-outside-1_128_1694" maskUnits="userSpaceOnUse" x="0" y="0.502716" width="74" height="69" fill="black">
<rect fill="white" y="0.502716" width="74" height="69"/>
<path d="M37.2608 2.50272L21.1623 32.3287H53.3593L37.2608 2.50272Z"/>
<path d="M35.9865 27.3973H38.1427L40.9728 18.5111H39.0099L37.0822 25.4944H37.047L35.1134 18.5111H33.1564L35.9865 27.3973Z"/>
<path d="M18.0985 37.174L2 67H34.197L18.0985 37.174Z"/>
<path d="M15.6955 61.0289H21.1623V59.4955H17.4651V52.1427H15.6955V61.0289Z"/>
<path d="M55.9015 37.174L39.803 67H72L55.9015 37.174Z"/>
<path d="M54.6956 61.0289H60.1624V59.4955H56.4651V52.1427H54.6956V61.0289Z"/>
</mask>
<path d="M35.9865 27.3973H38.1427L40.9728 18.5111H39.0099L37.0822 25.4944H37.047L35.1134 18.5111H33.1564L35.9865 27.3973Z" fill="#1E1E1E"/>
<path d="M15.6955 61.0289H21.1623V59.4955H17.4651V52.1427H15.6955V61.0289Z" fill="#1E1E1E"/>
<path d="M54.6956 61.0289H60.1624V59.4955H56.4651V52.1427H54.6956V61.0289Z" fill="#1E1E1E"/>
<path d="M37.2608 2.50272L39.0208 1.55276C38.6717 0.905919 37.9959 0.502716 37.2608 0.502716C36.5258 0.502715 35.85 0.905919 35.5008 1.55276L37.2608 2.50272ZM21.1623 32.3287L19.4023 31.3787C19.0678 31.9985 19.0839 32.7486 19.4448 33.3534C19.8057 33.9582 20.458 34.3287 21.1623 34.3287V32.3287ZM53.3593 32.3287V34.3287C54.0636 34.3287 54.716 33.9582 55.0769 33.3534C55.4377 32.7486 55.4538 31.9985 55.1193 31.3787L53.3593 32.3287ZM35.9865 27.3973L34.0808 28.0042L34.5244 29.3973H35.9865V27.3973ZM38.1427 27.3973V29.3973H39.6047L40.0484 28.0042L38.1427 27.3973ZM40.9728 18.5111L42.8785 19.1181L43.7087 16.5111H40.9728V18.5111ZM39.0099 18.5111V16.5111H37.4872L37.082 17.9789L39.0099 18.5111ZM37.0822 25.4944V27.4944H38.6049L39.0101 26.0266L37.0822 25.4944ZM37.047 25.4944L35.1195 26.0281L35.5255 27.4944H37.047V25.4944ZM35.1134 18.5111L37.0409 17.9774L36.6349 16.5111H35.1134V18.5111ZM33.1564 18.5111V16.5111H30.4204L31.2507 19.1181L33.1564 18.5111ZM18.0985 37.174L19.8585 36.2241C19.5094 35.5772 18.8335 35.174 18.0985 35.174C17.3634 35.174 16.6876 35.5772 16.3385 36.2241L18.0985 37.174ZM2 67L0.240003 66.05C-0.0945235 66.6698 -0.0783978 67.4199 0.282457 68.0247C0.643312 68.6296 1.2957 69 2 69L2 67ZM34.197 67V69C34.9013 69 35.5537 68.6296 35.9145 68.0247C36.2754 67.4199 36.2915 66.6698 35.957 66.05L34.197 67ZM15.6955 61.0289H13.6955V63.0289H15.6955V61.0289ZM21.1623 61.0289V63.0289H23.1623V61.0289H21.1623ZM21.1623 59.4955H23.1623V57.4955H21.1623V59.4955ZM17.4651 59.4955H15.4651V61.4955H17.4651V59.4955ZM17.4651 52.1427H19.4651V50.1427H17.4651V52.1427ZM15.6955 52.1427V50.1427H13.6955V52.1427H15.6955ZM55.9015 37.174L57.6615 36.2241C57.3124 35.5772 56.6366 35.174 55.9015 35.174C55.1665 35.174 54.4906 35.5772 54.1415 36.2241L55.9015 37.174ZM39.803 67L38.043 66.05C37.7085 66.6698 37.7246 67.4199 38.0855 68.0247C38.4463 68.6296 39.0987 69 39.803 69V67ZM72 67V69C72.7043 69 73.3567 68.6296 73.7175 68.0247C74.0784 67.4199 74.0945 66.6698 73.76 66.05L72 67ZM54.6956 61.0289H52.6956V63.0289H54.6956V61.0289ZM60.1624 61.0289V63.0289H62.1624V61.0289H60.1624ZM60.1624 59.4955H62.1624V57.4955H60.1624V59.4955ZM56.4651 59.4955H54.4651V61.4955H56.4651V59.4955ZM56.4651 52.1427H58.4651V50.1427H56.4651V52.1427ZM54.6956 52.1427V50.1427H52.6956V52.1427H54.6956ZM35.5008 1.55276L19.4023 31.3787L22.9223 33.2787L39.0208 3.45267L35.5008 1.55276ZM21.1623 34.3287H53.3593V30.3287H21.1623V34.3287ZM55.1193 31.3787L39.0208 1.55276L35.5008 3.45267L51.5993 33.2787L55.1193 31.3787ZM35.9865 29.3973H38.1427V25.3973H35.9865V29.3973ZM40.0484 28.0042L42.8785 19.1181L39.0671 17.9042L36.237 26.7904L40.0484 28.0042ZM40.9728 16.5111H39.0099V20.5111H40.9728V16.5111ZM37.082 17.9789L35.1543 24.9622L39.0101 26.0266L40.9378 19.0433L37.082 17.9789ZM37.0822 23.4944H37.047V27.4944H37.0822V23.4944ZM38.9745 24.9607L37.0409 17.9774L33.1859 19.0448L35.1195 26.0281L38.9745 24.9607ZM35.1134 16.5111H33.1564V20.5111H35.1134V16.5111ZM31.2507 19.1181L34.0808 28.0042L37.8921 26.7904L35.0621 17.9042L31.2507 19.1181ZM16.3385 36.2241L0.240003 66.05L3.76 67.95L19.8585 38.124L16.3385 36.2241ZM2 69H34.197V65H2V69ZM35.957 66.05L19.8585 36.2241L16.3385 38.124L32.437 67.95L35.957 66.05ZM15.6955 63.0289H21.1623V59.0289H15.6955V63.0289ZM23.1623 61.0289V59.4955H19.1623V61.0289H23.1623ZM21.1623 57.4955H17.4651V61.4955H21.1623V57.4955ZM19.4651 59.4955V52.1427H15.4651V59.4955H19.4651ZM17.4651 50.1427H15.6955V54.1427H17.4651V50.1427ZM13.6955 52.1427V61.0289H17.6955V52.1427H13.6955ZM54.1415 36.2241L38.043 66.05L41.563 67.95L57.6615 38.124L54.1415 36.2241ZM39.803 69H72V65H39.803V69ZM73.76 66.05L57.6615 36.2241L54.1415 38.124L70.24 67.95L73.76 66.05ZM54.6956 63.0289H60.1624V59.0289H54.6956V63.0289ZM62.1624 61.0289V59.4955H58.1624V61.0289H62.1624ZM60.1624 57.4955H56.4651V61.4955H60.1624V57.4955ZM58.4651 59.4955V52.1427H54.4651V59.4955H58.4651ZM56.4651 50.1427H54.6956V54.1427H56.4651V50.1427ZM52.6956 52.1427V61.0289H56.6956V52.1427H52.6956Z" fill="#1E1E1E" mask="url(#path-1-outside-1_128_1694)"/>
</svg>
